# xmcd
#
# Track frame offsets: 
#        150
#        17398
#        33475
#        54166
#        70250
#        84980
#        102575
#        118430
#        135379
#        148934
#        162297
#        181632
#        198463
#        220270
#        234767
#        249372
#        262064
#
# Disc length: 3653 seconds
#
# Revision: 0
# Processed by: cddbd v1.5.2PL0 Copyright (c) Steve Scherf et al.
# Submitted via: ExactAudioCopy v0.90b4
#
DISCID=e90e4311
DTITLE=Various Artist - CDX 513
DYEAR=2010
DGENRE=Country
TTITLE0=Jason Aldean with Kelly Clarkson - Don't You Wanna Stay
TTITLE1=Crossin' Dixon - Goodbye to Henry
TTITLE2=Sugarland - Little Miss
TTITLE3=Chuck Wicks - Old School
TTITLE4=Alan Jackson - Ring of Fire
TTITLE5=Randy Rogers Band - Steal You Away
TTITLE6=Josh Thompson - Won't Be Lonely Long
TTITLE7=Kelly Parkes - Nothing
TTITLE8=Sean Patrick McGraw - My So Called Life
TTITLE9=Guy Penrod - Pray About Everything
TTITLE10=Jamey Garner - That's What Soldiers Do
TTITLE11=Brett Eldredge - Raymond
TTITLE12=James Otto - Soldiers and Jesus
TTITLE13=Frankie Ballard - Tell Me You Get Lonely
TTITLE14=Blake Shelton - Who Are You When I'm Not Looking
TTITLE15=The Janedear Girls -  Wildflower
TTITLE16=T Graham Brown - Mary Had a Little Lamb
EXTD=
EXTT0=
EXTT1=
EXTT2=
EXTT3=
EXTT4=
EXTT5=
EXTT6=
EXTT7=
EXTT8=
EXTT9=
EXTT10=
EXTT11=
EXTT12=
EXTT13=
EXTT14=
EXTT15=
EXTT16=
PLAYORDER=
